<?xml version="1.0" encoding="utf-8" ?>
<svg baseProfile="full" height="200mm" version="1.1" viewBox="0,0,200,200" width="200mm" xmlns="http://www.w3.org/2000/svg" xmlns:ev="http://www.w3.org/2001/xml-events" xmlns:xlink="http://www.w3.org/1999/xlink"><defs /><rect fill="#1a1a1a" height="200" width="200" x="0" y="0" /><text alignment-baseline="middle" fill="#e1ed5e" style="dominant-baseline: central; font-size:9.0px; font-family:Arial;" text-anchor="middle" x="100.0" y="100.0">2022</text><line stroke="#e1ed5e" stroke-width="0.3" x1="100.0" x2="100.0" y1="15.0" y2="10.0" /><path d="M 100.0 14.0 a86.0,86.0 0 0,1 42.46469731375804,11.215312516191453" fill="none" id="id13" stroke="none" /><text fill="#e1ed5e" style="font-size:6.75px; font-family:Arial;" text-anchor="middle"><textPath startOffset="22.20632615414155" xlink:href="#id13">January</textPath></text><path d="M 102.88285421437855 79.19881850522331 l 0.17706104584355567 -1.2775807156244683 a22.28979188200684,22.28979188200684 0 0,0 0.3795962379426275,0.05594261805170558 l -0.19902626421483893 1.2743436134117938" fill="#ff0a01" stroke="none" /><path d="M 103.95276090670814 79.375362276772 l 0.2429500675763734 -1.2676600601095906 a22.290731096445892,22.290731096445892 0 0,0 0.37621827895791043,0.07546584748114549 l -0.2647347560014092 1.2632902565512367" fill="#ff0a01" stroke="none" /><path d="M 105.01212808612495 79.60689891045804 l 0.3769258207091622 -1.5336173044458954 a22.579257772123718,22.579257772123718 0 0,0 0.3766339665554525,0.09601238418006915 l -0.4032686759496397 1.5269019240969584" fill="#ff0e01" stroke="none" /><path d="M 105.36241919743992 79.69619591428918 l 0.24739418852465178 -0.936712135102379 a21.96883100103363,21.96883100103363 0 0,0 0.3647894162546669,0.09971072746243209 l -0.26348149400302956 0.9323148668136534" fill="#ff0500" stroke="none" /><path d="M 108.09893153111575 80.62456947434976 l 3.816598140930401 -9.13061579046778 a30.89618947284726,30.89618947284726 0 0,0 0.4889193135340487,0.20932973439751243 l -3.973201212254765 9.063566528107478" fill="#ff810b" stroke="none" /><path d="M 108.43124777332544 80.76684994638697 l 3.405162904174356 -7.7677718475056645 a29.48135684185418,29.48135684185418 0 0,0 0.46302279325263046,0.20774483054198958 l -3.538367815893767 7.708006686447144" fill="#ff6e0a" stroke="none" /><path d="M 108.76106565485865 80.91482961587045 l 0.8517170599407636 -1.8553867586901012 a23.041539119026794,23.041539119026794 0 0,0 0.35903303071134446,0.16857082202632062 l -0.8835283019517061 1.8404509540237777" fill="#ff1402" stroke="none" /><path d="M 109.41281617654863 81.2277094730956 l 0.5487098544993908 -1.0943102054092042 a22.224172099864834,22.224172099864834 0 0,0 0.34049496643590926,0.1744147467047193 l -0.5674653085240555 1.0847029333919842" fill="#ff0901" stroke="none" /><path d="M 109.73455568895987 81.39251694778311 l 0.7735999625641466 -1.478726780404916 a22.668858829609604,22.668858829609604 0 0,0 0.3441941870176883,0.18385661450528873 l -0.7989391961101461 1.4651914393978733" fill="#ff0f01" stroke="none" /><path d="M 110.05341064243156 81.56283822128135 l 8.036543552122406 -14.738386691062471 a37.78708058360499,37.78708058360499 0 0,0 0.5683823095549829,0.3163041398928785 l -8.289049950749424 14.597867153609414" fill="#ffda14" stroke="none" /><line stroke="#e1ed5e" stroke-width="0.3" x1="143.23703022742887" x2="145.7803849466894" y1="26.81831364943548" y2="22.513508569990506" /><path d="M 143.74570117128098 25.957352633546492 a86.0,86.0 0 0,1 28.547481713284135,27.462654790039103" fill="none" id="id14" stroke="none" /><text fill="#e1ed5e" style="font-size:6.75px; font-family:Arial;" text-anchor="middle"><textPath startOffset="19.985693538727396" xlink:href="#id14">February</textPath></text><path d="M 110.68208982089419 81.91981866633111 l 10.060323312226915 -17.027798194002905 a40.77766458614932,40.77766458614932 0 0,0 0.6012529431869281,0.3622481708050255 l -10.351938321631481 16.852103413739265" fill="#ffff18" stroke="none" /><path d="M 111.90073688211348 82.69761687909136 l 10.699556817249997 -15.555997339478372 a39.88040172537171,39.88040172537171 0 0,0 0.5622545281798573,0.39389522830978035 l -10.965742485013505 15.369517268404657" fill="#fff417" stroke="none" /><path d="M 112.77801427241765 83.33499621200491 l 2.6376180570072556 -3.439964455681701 a25.33478770772044,25.33478770772044 0 0,0 0.3437899866022556,0.2683335376494687 l -2.696440598768942 3.3940525288090084" fill="#ff3505" stroke="none" /><path d="M 113.34407831869373 83.78471172551755 l 9.049347665730034 -10.996471812538923 a35.24124592510138,35.24124592510138 0 0,0 0.46508789030057457,0.3894977329150386 l -9.237293092989725 10.839072922230065" fill="#ffba11" stroke="none" /><path d="M 113.6212207817346 84.01681056812373 l 12.344508858916127 -14.485091072021023 a40.03167786435557,40.03167786435557 0 0,0 0.5206142607300269,0.4514715566869644 l -12.592016918292918 14.270454521914388" fill="#fff617" stroke="none" /><path d="M 114.16331599549186 84.49514656593476 l 5.108202560566966 -5.592047232323089 a28.57395046513477,28.57395046513477 0 0,0 0.36029318152401224,0.3348532460571457 l -5.203703625885825 5.503289400191303" fill="#ff6209" stroke="none" /><path d="M 114.42810811169701 84.74124197986012 l 12.501071775048473 -13.220779032922659 a39.195213484932815,39.195213484932815 0 0,0 0.4862385658577858,0.4677611151088791 l -12.726793584518676 13.003634831051478" fill="#ffeb16" stroke="none" /><path d="M 114.68862486808459 84.99185889309783 l 7.599453859679882 -7.764761976410987 a31.864770016697147,31.864770016697147 0 0,0 0.38869587210378653,0.3870266885018315 l -7.731985531950992 7.632799437259037" fill="#ff8e0d" stroke="none" /><path d="M 114.94478906791727 85.2469230424477 l 4.441149395818091 -4.384178225515917 a27.24057903315576,27.24057903315576 0 0,0 0.32654415333643405,0.33653245405464066 l -4.515957812857635 4.3070815759111625" fill="#ff4f07" stroke="none" /><path d="M 115.19652480421416 85.50635884689758 l 7.446955666112192 -7.102512218962176 a31.290909994434287,31.290909994434287 0 0,0 0.36838740361453315,0.3929699971070694 l -7.5681103916971875 6.973272804977052" fill="#ff860c" stroke="none" /><path d="M 115.68641384162765 86.03803664274999 l 3.5900117294718954 -3.195351896554542 a25.80608551323845,25.80608551323845 0 0,0 0.2924789676836463,0.33435402016422144 l -3.64448256073339 3.133082320187373" fill="#ff3c05" stroke="none" /><path d="M 115.9244219780498 86.31012108654704 l 20.891022804623997 -17.959557525397326 a48.54960145503698,48.54960145503698 0 0,0 0.5393384161376447,0.6384065686134365 l -21.197071834248757 17.59729200715478" fill="#a5ff21" stroke="none" /><path d="M 116.15771136456269 86.58626213691792 l 11.87870244700484 -9.861409031426087 a36.43861910630516,36.43861910630516 0 0,0 0.39648949583067183,0.48604924044270437 l -12.046690434911921 9.655475621375281" fill="#ffc912" stroke="none" /><path d="M 116.38621287248628 86.86637796730983 l 12.518802151697027 -10.033875248776146 a37.04366104794466,37.04366104794466 0 0,0 0.39450779205872116,0.5009848330210402 l -12.689664024349714 9.816898021802068" fill="#ffd113" stroke="none" /><path d="M 116.60985879189232 87.15038557335679 l 3.6522341768711466 -2.825418419060279 a25.61755386817206,25.61755386817206 0 0,0 0.26681787540828844,0.3511010479975065 l -3.700327992503549 2.762132595181739" fill="#ff3905" stroke="none" /><path d="M 116.82858285166822 87.43820079747576 l 15.199313239731037 -11.34562087709261 a39.966872068060745,39.966872068060745 0 0,0 0.4067816581823534,0.5548497246103079 l -15.392357510427017 11.082308708810809" fill="#fff517" stroke="none" /><path d="M 117.04232023915458 87.72973835380427 l 12.459071617153272 -8.970378825526954 a36.352399220799875,36.352399220799875 0 0,0 0.36125175986819497,0.5109649952066331 l -12.61163599682535 8.754587329988528" fill="#ffc812" stroke="none" /><path d="M 117.2510076193507 88.02491185347247 l 39.33247225511805 -27.303322372169653 a68.8802128886062,68.8802128886062 0 0,0 0.6677298163642573,0.9798111119828414 l -39.796626537151035 26.622233236916408" fill="#3aff96" stroke="none" /><path d="M 117.65298651832404 88.62581576622439 l 19.57532965843417 -12.612789668241394 a44.28682018764411,44.28682018764411 0 0,0 0.40738054810811186,0.6443781944567923 l -19.78953780278824 12.273963826070394" fill="#d6ff1c" stroke="none" /><line stroke="#e1ed5e" stroke-width="0.3" x1="172.23445277983987" x2="176.4835382374775" y1="55.19839476539836" y2="52.563006222186495" /><path d="M 173.08426987136738 54.67131705675599 a86.0,86.0 0 0,1 12.851231095245387,41.99856678651699" fill="none" id="id15" stroke="none" /><text fill="#e1ed5e" style="font-size:6.75px; font-family:Arial;" text-anchor="middle"><textPath startOffset="22.20632615414155" xlink:href="#id15">March</textPath></text><path d="M 117.84615892207809 88.93136811851018 l 11.075806967968973 -6.869491113139379 a34.03316569929236,34.03316569929236 0 0,0 0.3044901985335338,0.500501826082135 l -11.19241296478873 6.677821513850162" fill="#ffaa0f" stroke="none" /><path d="M 118.03404312379186 89.2402003453031 l 20.857571039167198 -12.444424365880064 a45.28789755108531,45.28789755108531 0 0,0 0.3936603600728371,0.6728931622450582 l -21.06869107371036 12.08355179128111" fill="#caff1d" stroke="none" /><path d="M 118.21658344932153 89.55222093294921 l 12.502102633620348 -7.170345995616654 a35.412370795897274,35.412370795897274 0 0,0 0.2987157566767717,0.5313819995281314 l -12.623676031589552 6.954080486153729" fill="#ffbc11" stroke="none" /><path d="M 118.3937258080291 89.86733742301442 l 16.946428282291787 -9.335381067526484 a40.347629601653814,40.347629601653814 0 0,0 0.3298743437303466,0.6112070597021091 l -17.104610725240597 9.042293024491917" fill="#fff917" stroke="none" /><path d="M 118.56541770881063 90.18545643968196 l 0.5598077918696898 -0.2959404439418083 a21.633218374811165,21.633218374811165 0 0,0 0.17120175353718353,0.33070729541014837 l -0.5648189785669897 0.28626042627131515" fill="#ff0000" stroke="none" /><path d="M 118.89224826269711 90.83032412892265 l 2.8214446936331385 -1.369436446580629 a24.136224854893854,24.136224854893854 0 0,0 0.1781963759687733,0.375327013531947 l -2.844599263443668 1.3206670174081416" fill="#ff2403" stroke="none" /><path d="M 119.04729006885535 91.15688171328212 l 1.9406405013403114 -0.9009845202813763 a23.13959310646418,23.13959310646418 0 0,0 0.1646191236436503,0.36271641785704434 l -1.9558619419473087 0.8674460935822692" fill="#ff1602" stroke="none" /><path d="M 119.196687751892 91.48605970444005 l 3.1696971882929432 -1.4057952582716031 a24.467454480400733,24.467454480400733 0 0,0 0.16743811977785286,0.3864702657589182 l -3.193426017913477 1.3510258479260822" fill="#ff2903" stroke="none" /><path d="M 119.34039704204932 91.81776055985345 l 2.229193354301007 -0.9430930370052822 a23.420480838037687,23.420480838037687 0 0,0 0.1538818303974561,0.3726370581047393 l -2.2450968715846606 0.9045814084472398" fill="#ff1a02" stroke="none" /><path d="M 119.47837535516314 92.15188598940014 l 2.251427304856844 -0.9071320299005542 a23.427305796294824,23.427305796294824 0 0,0 0.1474876635792382,0.3753400165606739 l -2.2667085183177824 0.8682430084440959" fill="#ff1a02" stroke="none" /><path d="M 119.7369772167798 92.82701384747503 l 2.6312307942573496 -0.956265077676601 a23.79961039993639,23.79961039993639 0 0,0 0.13661760531614991,0.38623636735334055 l -2.6473014803833093 0.9108310838966459" fill="#ff1f03" stroke="none" /><path d="M 119.85752413597 93.16781622104841 l 0.9030973671561692 -0.3107198631838331 a21.955055855927487,21.955055855927487 0 0,0 0.11987743427774251,0.35841827020261424 l -0.9083120952056817 0.29512849005890485" fill="#ff0500" stroke="none" /><path d="M 120.08093135843002 93.85539295169968 l 2.5550618135971686 -0.7818288180185088 a23.672002464816728,23.672002464816728 0 0,0 0.11587344080668609,0.39066763862710424 l -2.5681411515155568 0.7377317926448747" fill="#ff1d03" stroke="none" /><path d="M 120.18372546131832 94.20196356495316 l 3.6119111316412993 -1.0375682319670085 a24.757984813548543,24.757984813548543 0 0,0 0.11413811733659873,0.4106155362230574 l -3.629236019544261 0.9752413923249992" fill="#ff2d04" stroke="none" /><path d="M 120.28053869075195 94.5502522615342 l 1.0957005677320453 -0.29443457011111585 a22.134571042378944,22.134571042378944 0 0,0 0.09570953538692314,0.3688078822224429 l -1.100606434989271 0.2755302623398226" fill="#ff0701" stroke="none" /><path d="M 120.37134235888165 94.90015583598534 l 3.1668553149818277 -0.7928033563947956 a24.264584161564763,24.264584161564763 0 0,0 0.09794480248626274,0.4060444391436726 l -3.18003291772891 0.7381736855917168" fill="#ff2603" stroke="none" /><path d="M 120.6074358757038 95.95851677861258 l 3.3495480619229046 -0.6569057098196538 a24.41335572871114,24.41335572871114 0 0,0 0.07732555634411005,0.41307621395790467 l -3.360359342176874 0.5991514183991864" fill="#ff2803" stroke="none" /><path d="M 120.67395015179393 96.31383870115 l 2.895146150053588 -0.5162039965505117 a23.94080563727439,23.94080563727439 0 0,0 0.06884479457815006,0.4063258746806141 l -2.9036028061519614 0.4662923335540598" fill="#ff2103" stroke="none" /><path d="M 120.73433829027371 96.67025291283417 l 2.0469945390273483 -0.3287287980136788 a23.07322195277093,23.07322195277093 0 0,0 0.05959934810975197,0.3926852383759441 l -2.0523497805764004 0.2934444472456526" fill="#ff1502" stroke="none" /><path d="M 120.78858239683441 97.02765380044208 l 1.6510658423247142 -0.2360689722836053 a22.667857000874612,22.667857000874612 0 0,0 0.0519029170184233,0.386737018481641 l -1.6548847584009738 0.20761361173729992" fill="#ff0f01" stroke="none" /><path d="M 120.83666639777658 97.38593545837742 l 25.34277981727109 -3.179379121486811 a46.54143575574461,46.54143575574461 0 0,0 0.09288262586806674,0.7957616159738901 l -25.393752796142746 2.7426737671880677" fill="#bcff1f" stroke="none" /><path d="M 120.91429891909075 98.10471618934814 l 1.2386321840360377 -0.11224662776589607 a22.243707760197186,22.243707760197186 0 0,0 0.031274140637530104,0.38162373027126667 l -1.2403808084930625 0.09090898028686066" fill="#ff0901" stroke="none" /><path d="M 120.94382443527127 98.46500227214037 l 1.5289474759675856 -0.11205837352582676 a22.533048421722192,22.533048421722192 0 0,0 0.02502177962206902,0.38707585585160625 l -1.53064984659407 0.08572345342118527" fill="#ff0d01" stroke="none" /><path d="M 120.96714384426684 98.82574320788733 l 2.948145134197154 -0.16510972947378916 a23.952764967798363,23.952764967798363 0 0,0 0.019511684830006665,0.4118608283591281 l -2.9505504272606573 0.11433779449166132" fill="#ff2103" stroke="none" /><path d="M 120.98425023603335 99.18683210126433 l 1.4018837285975272 -0.054324878565252116 a22.402935914765045,22.402935914765045 0 0,0 0.01161571482526498,0.3854690253013927 l -1.4026111378784372 0.030185705838860315" fill="#ff0b01" stroke="none" /><line stroke="#e1ed5e" stroke-width="0.3" x1="184.98032266829074" x2="189.97916517819016" y1="98.17113171792111" y2="98.06355123074" /><path d="M 185.9800911702706 98.14961562048488 a86.0,86.0 0 0,1 -9.607161424134198,41.387399972396054" fill="none" id="id16" stroke="none" /><text fill="#e1ed5e" style="font-size:6.75px; font-family:Arial;" text-anchor="middle"><textPath startOffset="21.466115282336823" xlink:href="#id16">April</textPath></text><path d="M 120.99980553446 99.90962569577887 l 1.5791179203479009 -0.006795857375934945 a22.579132543531845,22.579132543531845 0 0,0 -0.0016726865570782482,0.3886734478509281 l -1.5790009365013198 -0.020387068678677872" fill="#ff0e01" stroke="none" /><path d="M 120.99824983174949 100.27111621757518 l 1.6228272908054788 0.020952927048030534 a22.622962550687763,22.622962550687763 0 0,0 -0.008379046885651107,0.3893413839436856 l -1.6222261812348202 -0.04888412678183099" fill="#ff0e01" stroke="none" /><path d="M 120.95626037817324 101.35467743843564 l 2.14857071250258 0.1388902512464657 a23.153055180090643,23.153055180090643 0 0,0 -0.02913254263297513,0.3974903983140612 l -2.1458616112052673 -0.17585378605729718" fill="#ff1602" stroke="none" /><path d="M 120.81339534386255 102.79330883721812 l 1.868873938877775 0.2508164575201464 a22.885629522143596,22.885629522143596 0 0,0 -0.05576023583728388,0.3899869595751384 l -1.8642796520238898 -0.28294888907569415" fill="#ff1202" stroke="none" /><path d="M 120.70491114924044 103.5080841355445 l 1.2480853602931774 0.21146617924078645 a22.265873220958895,22.265873220958895 0 0,0 -0.06727851763306805,0.37733365609003006 l -1.2442604003209206 -0.23291858606403484" fill="#ff0901" stroke="none" /><path d="M 120.64145759157962 103.86396538481128 l 2.9638963426153646 0.5548248141500607 a24.01537926373539,24.01537926373539 0 0,0 -0.0795595973806151,0.40567267300320253 l -2.9539068122590852 -0.6057612142212082" fill="#ff2203" stroke="none" /><path d="M 120.5718875245553 104.21870165774334 l 1.0193119192267441 0.20903151829245503 a22.04052436988153,22.04052436988153 0 0,0 -0.07941511730782973,0.37100098940829856 l -1.0155627631944713 -0.22654632711692266" fill="#ff0601" stroke="none" /><path d="M 120.49622156327973 104.57218783832717 l 0.9823177190749721 0.21913019990837673 a22.006462192891785,22.006462192891785 0 0,0 -0.08565694121512667,0.3690078609043347 l -0.9784002119292926 -0.23600671816127636" fill="#ff0500" stroke="none" /><path d="M 120.32669344350535 105.2749913415812 l 1.1986195522547274 0.3110544160842756 a22.2383229307466,22.2383229307466 0 0,0 -0.09934380252695739,0.36969524600446446 l -1.1930876733859928 -0.3316405952642883" fill="#ff0901" stroke="none" /><path d="M 120.13307415673323 105.97154293290107 l 1.204430706490106 0.3572385229160186 a22.256293233680527,22.256293233680527 0 0,0 -0.11210095082744333,0.3663523934216911 l -1.1981029831565302 -0.37791788888976685" fill="#ff0901" stroke="none" /><path d="M 120.02730092923936 106.31721596034902 l 1.2018649691981413 0.37910453297868546 a22.26023793432456,22.26023793432456 0 0,0 -0.11841147959457833,0.3644330613607998 l -1.195161238587316 -0.3997364943172805" fill="#ff0901" stroke="none" /><path d="M 119.79798401119884 107.00284435728193 l 10.837377409008491 3.8333431925937873 a32.495358591078954,32.495358591078954 0 0,0 -0.19106611504445847,0.5257318889711818 l -10.769787032958805 -4.0193228785711" fill="#ff960d" stroke="none" /><path d="M 119.54520255179757 107.68017299344265 l 1.6590189221731335 0.6519017793710504 a22.78250377673531,22.78250377673531 0 0,0 -0.14656460480514397,0.36376132945061135 l -1.647551703110597 -0.6803624766644752" fill="#ff1101" stroke="none" /><path d="M 119.26925614724726 108.34839909993367 l 1.136494660437797 0.49238595033331023 a22.238573387930348,22.238573387930348 0 0,0 -0.1552029139456692,0.34994159857481094 l -1.1278506617608548 -0.5118758854008089" fill="#ff0901" stroke="none" /><path d="M 118.81262510543309 109.33194174019688 l 10.836087766586468 5.375206233192891 a33.09601753200286,33.09601753200286 0 0,0 -0.25755215285032707,0.5081748315527672 l -10.741956943949871 -5.560935276448353" fill="#ff9e0e" stroke="none" /><line stroke="#e1ed5e" stroke-width="0.3" x1="174.80103733775053" x2="179.2010983576182" y1="140.37084112569926" y2="142.7455964860345" /><path d="M 175.68104954172406 140.8457921977663 a86.0,86.0 0 0,1 -30.038265399797805,32.042727171017184" fill="none" id="id17" stroke="none" /><text fill="#e1ed5e" style="font-size:6.75px; font-family:Arial;" text-anchor="middle"><textPath startOffset="22.206326154141568" xlink:href="#id17">May</textPath></text><path d="M 118.48025628344425 109.97397251340804 l 20.45824761650925 11.041513508790434 a44.24768625268347,44.24768625268347 0 0,0 -0.3675162052217205,0.667148664775416 l -20.26515500183602 -11.392032691963655" fill="#d6ff1c" stroke="none" /><path d="M 118.30583269289576 110.29060199501025 l 1.6866160532415466 0.9481292008660989 a22.934844358750098,22.934844358750098 0 0,0 -0.19641837983224114,0.34247200139201944 l -1.6700456772569259 -0.9770210481164333" fill="#ff1302" stroke="none" /><path d="M 118.12598468904814 110.60418214915192 l 2.1864460023658214 1.2791289447784362 a23.5331239564284,23.5331239564284 0 0,0 -0.20756117196641613,0.34788446311201876 l -2.164103954701178 -1.316575501776559" fill="#ff1b02" stroke="none" /><path d="M 117.55443506779139 111.5257021239791 l 1.4379611432101236 0.9441210576411638 a22.720202552277968,22.720202552277968 0 0,0 -0.21746143606891816,0.3250753413679305 l -1.4214966017304842 -0.9687333132149012" fill="#ff1001" stroke="none" /><path d="M 117.14729908036423 112.12312394758627 l 2.550928302603045 1.8035038549759566 a24.12407768148207,24.12407768148207 0 0,0 -0.24264250936332044,0.3370092233920585 l -2.519506000864122 -1.8471466838191462" fill="#ff2403" stroke="none" /><path d="M 116.93607887273984 112.41649034213515 l 1.0658438521713824 0.7814110926237758 a22.321599944342847,22.321599944342847 0 0,0 -0.2298473570144572,0.30791809583912927 l -1.0522352284618333 -0.7996420679722201" fill="#ff0a01" stroke="none" /><path d="M 116.71984013943494 112.70617746262583 l 1.217795146674834 0.9254586836796057 a22.52954202114972,22.52954202114972 0 0,0 -0.23730386220368466,0.30674723078080435 l -1.2016844672530809 -0.9462839085736627" fill="#ff0d01" stroke="none" /><path d="M 116.27256486870786 113.27417163493432 l 2.0969833434808196 1.7105918483994444 a23.706189870398347,23.706189870398347 0 0,0 -0.26065971754086387,0.31398142138927926 l -2.0672276260464124 -1.7464345269024941" fill="#ff1e03" stroke="none" /><path d="M 116.0416608686014 113.55231037782055 l 7.71307403398006 6.516156533405117 a31.097118748509182,31.097118748509182 0 0,0 -0.34896518875491234,0.4059253523361796 l -7.599766335654369 -6.647958984902824" fill="#ff840c" stroke="none" /><path d="M 115.80600337817218 113.82643327865902 l 4.124522353256556 3.607960327428083 a26.479877951816807,26.479877951816807 0 0,0 -0.30305734895767883,0.34048814424285034 l -4.061806154650539 -3.6784226414118" fill="#ff4506" stroke="none" /><path d="M 115.32070863581623 114.36230785411682 l 2.6318497277090613 2.4672119882734944 a24.607460046115925,24.607460046115925 0 0,0 -0.29235238422427656,0.3065303060497246 l -2.5889907921058204 -2.5121494109057263" fill="#ff2b04" stroke="none" /><path d="M 115.07121518719521 114.62390073753431 l 8.999275193200825 8.732176237980967 a33.5394519758289,33.5394519758289 0 0,0 -0.4056027742743518,0.4108734689267125 l -8.847631793870939 -8.885790200888346" fill="#ffa40f" stroke="none" /><path d="M 114.55890576462653 115.13401014063108 l 0.9505771997509097 0.988126801083941 a22.371127852429037,22.371127852429037 0 0,0 -0.27981398243308747,0.26458158549866534 l -0.9334273829270147 -1.0043430233285278" fill="#ff0b01" stroke="none" /><path d="M 114.29624159901734 115.38237550388516 l 7.621555213597141 8.200590582297046 a32.19543611354059,32.19543611354059 0 0,0 -0.40918935256260863,0.37378477178003555 l -7.479266311567668 -8.330568120663665" fill="#ff920d" stroke="none" /><path d="M 113.75828350139079 115.86535959552629 l 0.969148389084312 1.1175731109693532 a22.479262741512283,22.479262741512283 0 0,0 -0.2945152972040629,0.25099232565022306 l -0.949767615303202 -1.1340898268425232" fill="#ff0c01" stroke="none" /><path d="M 113.48314897796784 116.09983520530334 l 0.8023476006866176 0.9580598841956877 a22.249656118311204,22.249656118311204 0 0,0 -0.29574017391566826,0.2433740292440633 l -0.7857372982262583 -0.9717290322969293" fill="#ff0901" stroke="none" /><path d="M 113.20401910651253 116.32954008644616 l 2.135128314195042 2.640534152147477 a24.395761111552837,24.395761111552837 0 0,0 -0.3288113043848789,0.261227586477183 l -2.0893595170928116 -2.676895652629786" fill="#ff2803" stroke="none" /><path d="M 112.92097659922987 116.55440617244103 l 0.4494012643019499 0.5757746720249008 a21.73039576210543,21.73039576210543 0 0,0 -0.29684886964832286,0.22761105496116232 l -0.43942366616013323 -0.5834250688134347" fill="#ff0100" stroke="none" /><path d="M 112.63410532772338 116.77436683061366 l 7.528591238785547 9.995749432293952 a33.513780114494715,33.513780114494715 0 0,0 -0.46379086663617203,0.3431013954637775 l -7.355415401730811 -10.123860776497498" fill="#ffa40f" stroke="none" /><path d="M 112.34349029814194 116.9893568818739 l 7.615912413131328 10.482404153325945 a33.956964101137,33.956964101137 0 0,0 -0.4758384078181468,0.3394980696849317 l -7.434346677464297 -10.611946484855094" fill="#ffa90f" stroke="none" /><path d="M 111.1453310114006 117.79835938074945 l 0.7072947401406849 1.1295031040586136 a22.332682674723703,22.332682674723703 0 0,0 -0.3275681326250601,0.201219101367609 l -0.6877474075833161 -1.141510672254601" fill="#ff0a01" stroke="none" /><line stroke="#e1ed5e" stroke-width="0.3" x1="143.8653032363475" x2="146.44561519142675" y1="172.8068346515853" y2="177.08958963109032" /><path d="M 144.38136562736335 173.6633856474863 a86.0,86.0 0 0,1 -40.68145358897372,12.25698825130547" fill="none" id="id18" stroke="none" /><text fill="#e1ed5e" style="font-size:6.75px; font-family:Arial;" text-anchor="middle"><textPath startOffset="21.466115282336833" xlink:href="#id18">June</textPath></text><path d="M 110.5260780823613 118.17145234162733 l 0.5787062308996376 0.9990361663967942 a22.154545002782857,22.154545002782857 0 0,0 -0.3316337399964085,0.18831029267891305 l -0.56142372398203 -1.0088496248703358" fill="#ff0801" stroke="none" /><path d="M 110.21172684928248 118.3499491758327 l 3.9424191457585156 7.084324916072505 a29.10742426651825,29.10742426651825 0 0,0 -0.43990630797399155,0.239871993929309 l -3.8198900259158752 -7.151137561761584" fill="#ff6909" stroke="none" /><path d="M 109.89434966115114 118.52300852407294 l 12.382618900447135 23.181246195886306 a47.281161047944664,47.281161047944664 0 0,0 -0.7211707629888842,0.3772824585605958 l -11.981757234931754 -23.390958073391616" fill="#b4ff20" stroke="none" /><path d="M 109.2508944713604 118.85261126421891 l 0.4178790189664961 0.8516052933517024 a21.948606583445972,21.948606583445972 0 0,0 -0.34060823050436834,0.16351264937017737 l -0.40315812046189503 -0.8586722192214398" fill="#ff0500" stroke="none" /><path d="M 108.92500713936063 119.00905698771935 l 0.9282482876535868 1.9770431914773794 a23.18411187087541,23.18411187087541 0 0,0 -0.36270108282338387,0.16649827775948975 l -0.8940792090627835 -1.9927285395709435" fill="#ff1602" stroke="none" /><path d="M 107.93186726928326 119.44442032107085 l 0.5993835296753453 1.4693469884030963 a22.586896716228036,22.586896716228036 0 0,0 -0.361260122123818,0.1437528581522894 l -0.5740023315096611 -1.4794466909614548" fill="#ff0e01" stroke="none" /><path d="M 107.2578585660854 119.70592522655815 l 3.8114144802328385 10.348431024248965 a32.028005486204975,32.028005486204975 0 0,0 -0.5189763704285283,0.1860864621408341 l -3.6327185491745753 -10.41250502742976" fill="#ff900d" stroke="none" /><path d="M 106.2309692047433 120.05430185196036 l 0.6867900888280563 2.2104259061026625 a23.31466267790411,23.31466267790411 0 0,0 -0.3842756293003146,0.11577909484713075 l -0.6486394850874959 -2.2219203700555186" fill="#ff1802" stroke="none" /><path d="M 105.88484417918355 120.15858648285463 l 3.070873775072445 10.519305641380063 a31.958378389123006,31.958378389123006 0 0,0 -0.5293963694997729,0.14961270201804186 l -2.8893462374680663 -10.570607136736625" fill="#ff8f0d" stroke="none" /><path d="M 105.53697534728816 120.25689768951611 l 4.5077294657398435 16.491425168477818 a38.09639520553391,38.09639520553391 0 0,0 -0.6340502008935405,0.16745842084858323 l -4.223188822034805 -16.566574938629984" fill="#ffde14" stroke="none" /><path d="M 105.18746579009965 120.34920634021253 l 11.30046341288549 44.329056042683135 a66.74675598314383,66.74675598314383 0 0,0 -1.1157728305680505,0.2742298151355306 l -10.53573729757423 -44.517007116132696" fill="#38ff7e" stroke="none" /><path d="M 104.83641907484287 120.43548508189849 l 3.846432700350476 16.252462172975058 a37.70142422676314,37.70142422676314 0 0,0 -0.6328091609107525,0.14402530477354109 l -3.5661033900468615 -16.316264211326285" fill="#ffd914" stroke="none" /><path d="M 104.48393922423573 120.51570834832081 l 5.914796959131804 27.0624206272033 a48.70125327979645,48.70125327979645 0 0,0 -0.820519964261071,0.17194793627708702 l -5.448085533441355 -27.160224544206926" fill="#a4ff21" stroke="none" /><path d="M 104.13013068566511 120.58985236759428 l 3.0963296171928243 15.436065962920814 a36.74355072751849,36.74355072751849 0 0,0 -0.6211976411379274,0.11905400638693048 l -2.8301643614831926 -15.487077167656212" fill="#ffcd13" stroke="none" /><path d="M 103.7750983002368 120.6578951692458 l 3.4859027182362805 19.075374254227192 a40.39127176592192,40.39127176592192 0 0,0 -0.6850187134754782,0.11909928395667782 l -3.1570350332887527 -19.132552116704876" fill="#fffa17" stroke="none" /><path d="M 103.41894727170886 120.7198165907248 l 1.5608512340793625 9.459213238865301 a30.58712530810209,30.58712530810209 0 0,0 -0.5202201997793502,0.08124769633676732 l -1.3977951706914953 -9.484679242549173" fill="#ff7d0b" stroke="none" /><path d="M 103.06178313531738 120.77559828337769 l 1.6124754170045772 10.941382855986133 a32.05956309135724,32.05956309135724 0 0,0 -0.5466482343836657,0.07576046421552021 l -1.423898591434081 -10.967517885694255" fill="#ff910d" stroke="none" /><path d="M 102.70371172650421 120.8252237178851 l 2.131406013608234 16.417063487913982 a37.55484415997456,37.55484415997456 0 0,0 -0.641781128599709,0.07771075698921605 l -1.8484974619571446 -16.451319773628548" fill="#ffd714" stroke="none" /><path d="M 102.34483914955558 120.86867818915974 l 0.0742352173311835 0.6606810795872359 a21.66483859425936,21.66483859425936 0 0,0 -0.37095094087126496,0.03845058174819551 l -0.06285167985431589 -0.6618610297911899" fill="#ff0000" stroke="none" /><path d="M 101.98527174616119 120.90594882070398 l 4.388956836796126 46.218008785830335 a67.42593325117276,67.42593325117276 0 0,0 -1.1563729996185428,0.09977672817091071 l -3.5927395194360416 -46.286709766279905" fill="#39ff86" stroke="none" /><path d="M 101.62511606390274 120.93702456842531 l 0.4504328263427311 5.803107458623625 a26.820562336010177,26.820562336010177 0 0,0 -0.4605949312007292,0.03176532315717825 l -0.35047513436307154 -5.810001126297088" fill="#ff4a06" stroke="none" /><path d="M 101.26447882468166 120.96189622390904 l 0.8291035437413128 13.744463017920442 a34.76944720521587,34.76944720521587 0 0,0 -0.5977231093214536,0.030895457315273687 l -0.5923923660063797 -13.756698281997918" fill="#ffb410" stroke="none" /><path d="M 100.90346689309514 120.98055641714683 l 0.6191364802068506 14.37775744985224 a35.391081935278685,35.391081935278685 0 0,0 -0.6088608397824309,0.020970398401871596 l -0.3715552887497674 -14.386284646680204" fill="#ffbc11" stroke="none" /><line stroke="#e1ed5e" stroke-width="0.3" x1="102.19456741930631" x2="102.32365962044197" y1="184.97166512339345" y2="189.96999836594603" /><path d="M 102.22038585953345 185.97133177190398 a86.0,86.0 0 0,1 -42.740103519485714,-10.115201625700543" fill="none" id="id19" stroke="none" /><text fill="#e1ed5e" style="font-size:6.75px; font-family:Arial;" text-anchor="middle"><textPath startOffset="22.20632615414155" xlink:href="#id19">July</textPath></text><path d="M 100.18074693466247 120.99922214144158 l 0.38563896950194715 44.80362780199232 a65.80528742943469,65.80528742943469 0 0,0 -1.1327718083287743,0.0 l 0.3856389695019163 -44.80362780199232" fill="#37ff73" stroke="none" /><path d="M 98.01472825383883 120.90594882070398 l -0.17804227035770426 1.8748781365661567 a22.883312793193927,22.883312793193927 0 0,0 -0.3918139696243213,-0.040613119982224166 l 0.2102888365876189 -1.8715356481281717" fill="#ff1202" stroke="none" /><path d="M 95.86986931433489 120.58985236759428 l -0.18671297245782278 0.9308161970187586 a21.949357954997218,21.949357954997218 0 0,0 -0.36980334574384904,-0.07749588663120764 l 0.2027077796310586 -0.9274643296610099" fill="#ff0500" stroke="none" /><path d="M 95.51606077576429 120.51570834832081 l -0.4319004630643283 1.9761070551179867 a23.022754830245688,23.022754830245688 0 0,0 -0.38643129443475,-0.08795050450106663 l 0.46585190689194095 -1.9683798170392333" fill="#ff1402" stroke="none" /><path d="M 94.46302465271185 120.25689768951611 l -0.2571807723226565 0.940889974379666 a21.97540550210702,21.97540550210702 0 0,0 -0.36402660202120996,-0.1028775538946399 l 0.27333854244848044 -0.9363236271465047" fill="#ff0500" stroke="none" /><path d="M 93.76903079525671 120.05430185196036 l -0.6361823521448616 2.0475454947026686 a23.144101335771648,23.144101335771648 0 0,0 -0.3794295274742111,-0.1214813527076853 l 0.6713332247100131 -2.036291295335277" fill="#ff1602" stroke="none" /><path d="M 91.40352486487194 119.15986991738527 l -0.37498935922792614 0.8357782963684101 a21.916047149558718,21.916047149558718 0 0,0 -0.34286299499525047,-0.15739158463435757 l 0.389320349990596 -0.8291996413999781" fill="#ff0400" stroke="none" /><path d="M 90.42595943632237 118.69057910512821 l -4.179346175854102 8.15897945992308 a30.16710861095651,30.16710861095651 0 0,0 -0.46013330155050775,-0.2407199961283724 l 4.319170379931105 -8.08583004484999" fill="#ff770b" stroke="none" /><path d="M 90.10565033884886 118.52300852407294 l -0.467890948633986 0.8759290227949736 a21.993062733561263,21.993062733561263 0 0,0 -0.33238554327496495,-0.18124310011793787 l 0.4828993037775915 -0.8677452709172699" fill="#ff0500" stroke="none" /><line stroke="#e1ed5e" stroke-width="0.3" x1="58.666819895761336" x2="56.23545636021788" y1="174.27360380694188" y2="178.64263932499728" /><path d="M 58.180547188652646 175.14741091055294 a86.0,86.0 0 0,1 -31.652253787137756,-30.449443065178592" fill="none" id="id20" stroke="none" /><text fill="#e1ed5e" style="font-size:6.75px; font-family:Arial;" text-anchor="middle"><textPath startOffset="22.20632615414155" xlink:href="#id20">August</textPath></text><path d="M 89.4739219176387 118.17145234162733 l -0.49007526414110586 0.8460301392855344 a21.977722231056692,21.977722231056692 0 0,0 -0.32572253713898236,-0.19244261626562406 l 0.5045656723084704 -0.8374689507261608" fill="#ff0500" stroke="none" /><path d="M 89.1626897886671 117.98757091392108 l -0.5191064697813368 0.8616035026202862 a22.005898664228354,22.005898664228354 0 0,0 -0.32277497679829315,-0.19827475357514251 l 0.5338606465119387 -0.8525402822167656" fill="#ff0500" stroke="none" /><path d="M 88.54995079064634 117.60387380957326 l -0.5670287051308595 0.8717780674143347 a22.039960841218097,22.039960841218097 0 0,0 -0.3162475162018804,-0.209591609288624 l 0.5819509200727017 -0.8618884370343922" fill="#ff0601" stroke="none" /><path d="M 87.65650970185807 116.9893568818739 l -0.7448712932657658 1.0252273811289818 a22.267250735469506,22.267250735469506 0 0,0 -0.30815227291360553,-0.22796368462109795 l 0.7624085365979356 -1.0122537477681173" fill="#ff0901" stroke="none" /><path d="M 87.07902340077011 116.55440617244103 l -0.8422469301473824 1.0790900882819001 a22.368873737775303,22.368873737775303 0 0,0 -0.3014924813251792,-0.23952386121556932 l 0.8606969041899197 -1.0644323130612001" fill="#ff0b01" stroke="none" /><path d="M 86.79598089348748 116.32954008644616 l -0.738493849089495 0.9133025948404548 a22.17451896318677,22.17451896318677 0 0,0 -0.294741458465604,-0.2425521544208576 l 0.7541054360997878 -0.9004553215624165" fill="#ff0801" stroke="none" /><path d="M 86.51685102203217 116.09983520530335 l -1.0787350019653255 1.2880860242821348 a22.68012940287827,22.68012940287827 0 0,0 -0.297146980687219,-0.25323510340772615 l 1.1007474592296012 -1.2693265306514572" fill="#ff0f01" stroke="none" /><path d="M 86.24171649860922 115.8653595955263 l -8.021389955757385 9.249862898316433 a33.243474198934564,33.243474198934564 0 0,0 -0.42909037607494105,-0.3786223674035784 l 8.179422684738915 -9.110417389140567" fill="#ffa00e" stroke="none" /><path d="M 85.70375840098266 115.38237550388516 l -0.7316351995871437 0.7872200042200589 a22.074711775463147,22.074711775463147 0 0,0 -0.2761064642650112,-0.26107589565913253 l 0.7450774982429719 -0.7745094718149956" fill="#ff0601" stroke="none" /><path d="M 84.67929136418377 114.36230785411682 l -3.884552457652576 3.6415507662514885 a26.324531883597043,26.324531883597043 0 0,0 -0.30706136393895495,-0.333254465199823 l 3.94666022958726 -3.5741450462503215" fill="#ff4306" stroke="none" /><path d="M 84.43433777217949 114.09645910891817 l -19.811411019714413 17.941462511645312 a47.728039278047234,47.728039278047234 0 0,0 -0.5462386601959602,-0.6137049253664453 l 20.117308529558713 -17.597783416538004" fill="#afff20" stroke="none" /><path d="M 82.85270091963577 112.12312394758628 l -5.0298698522886 3.5561131449179206 a27.159994434284805,27.159994434284805 0 0,0 -0.2666065054364268,-0.3840665555339514 l 5.090337264887161 -3.4690053271969568" fill="#ff4e07" stroke="none" /><path d="M 82.6465618267979 111.8261652097733 l -24.212423589821945 16.500483572438394 a50.30029716943628,50.30029716943628 0 0,0 -0.48143826323686284,-0.7196848811377637 l 24.492864958469536 -16.08126177709481" fill="#92ff23" stroke="none" /><line stroke="#e1ed5e" stroke-width="0.3" x1="26.63291911575756" x2="22.317208475507996" y1="142.92168965132927" y2="145.44649492493687" /><path d="M 25.769776987707644 143.4266507060508 a86.0,86.0 0 0,1 -11.730757126820373,-40.83630448921669" fill="none" id="id21" stroke="none" /><text fill="#e1ed5e" style="font-size:6.75px; font-family:Arial;" text-anchor="middle"><textPath startOffset="21.46611528233685" xlink:href="#id21">September</textPath></text><path d="M 81.69416730710424 110.29060199501025 l -9.613618715305224 5.4042842841768755 a32.028506400572475,32.028506400572475 0 0,0 -0.2660250993472826,-0.48291282752882314 l 9.705220224104023 -5.23800093825023" fill="#ff900d" stroke="none" /><path d="M 81.51974371655577 109.97397251340807 l -4.094360509454582 2.2097658471256056 a25.652617873896794,25.652617873896794 0 0,0 -0.20637835463144377,-0.3903900712490799 l 4.131791372310911 -2.1389607607903995" fill="#ff3905" stroke="none" /><path d="M 81.35079622478065 109.6543875284942 l -31.333298023350494 16.220735496771567 a56.28296791762741,56.28296791762741 0 0,0 -0.4379922612131212,-0.8642002837100886 l 31.607868954349883 -15.678981001358792" fill="#54ff2b" stroke="none" /><path d="M 81.02952815118164 109.00673069616217 l -4.861588779337099 2.308167200053087 a26.38169873578755,26.38169873578755 0 0,0 -0.19123639040340568,-0.4119061717409654 l 4.900599786580331 -2.224140961033295" fill="#ff4406" stroke="none" /><path d="M 80.58989483394504 108.01547362559985 l -14.876926573633682 6.1434810146978 a37.09550568498052,37.09550568498052 0 0,0 -0.23864313527814657,-0.592292690779275 l 14.980472323169217 -5.886488956075719" fill="#ffd113" stroke="none" /><path d="M 79.76711848015287 105.62410040840567 l -12.242284863000766 3.402967552114714 a33.70644430309295,33.70644430309295 0 0,0 -0.15057458951199867,-0.5603440626963548 l 12.29904752885454 -3.1917325562428203" fill="#ffa60f" stroke="none" /><path d="M 79.58551787078972 104.9243191809786 l -48.72431838037956 11.75313162792893 a71.1218046831518,71.1218046831518 0 0,0 -0.2768312411808771,-1.1925817416605096 l 48.919410187490996 -10.912681228919846" fill="#3dffae" stroke="none" /><path d="M 79.23777060512086 103.15116336523772 l -15.415670561082152 2.339695578868663 a36.592211974238694,36.592211974238694 0 0,0 -0.08915596433636627,-0.6235566069159201 l 15.453660576435118 -2.0739934999723424" fill="#ffcb12" stroke="none" /><path d="M 79.18660465613746 102.79330883721812 l -11.694006256693054 1.5694205812958328 a32.79885008348573,32.79885008348573 0 0,0 -0.07028089296170226,-0.5602078668921561 l 11.719288658901606 -1.3678949601162682" fill="#ff9a0e" stroke="none" /><path d="M 79.0235259727143 100.99374915477108 l -5.596450552481291 0.2651288295169242 a26.60272720044526,26.60272720044526 0 0,0 -0.01773244957845609,-0.4575957312514508 l 5.600185134910948 -0.16875585125147663" fill="#ff4706" stroke="none" /><line stroke="#e1ed5e" stroke-width="0.3" x1="15.007084014347285" x2="10.007500721073583" y1="101.09737516637583" y2="101.16192664675087" /><path d="M 14.007167355692545 101.11028546245083 a86.0,86.0 0 0,1 10.666146001902534,-42.60595125391555" fill="none" id="id22" stroke="none" /><text fill="#e1ed5e" style="font-size:6.75px; font-family:Arial;" text-anchor="middle"><textPath startOffset="22.20632615414155" xlink:href="#id22">October</textPath></text><path d="M 79.00175016825051 100.2711162175752 l -13.166375969133416 0.1699959796900421 a34.16747336407728,34.16747336407728 0 0,0 -0.0025311633773013632,-0.5881532273734438 l 13.16735142980022 0.05666672588707704" fill="#ffac0f" stroke="none" /><path d="M 79.00486145842228 99.54816195383935 l -28.49292535556326 -0.6131985124348434 a49.49952293869762,49.49952293869762 0 0,0 0.025665044288397415,-0.8516978726653676 l 28.47814861681922 1.1035665325252053" fill="#9bff22" stroke="none" /><path d="M 79.46518482838121 95.60439243477599 l -4.473081792139286 -0.9574915576823877 a25.57441261827145,25.57441261827145 0 0,0 0.09584999153256568,-0.4296767177458644 l 4.4559374136046825 1.0343464449782114" fill="#ff3805" stroke="none" /><path d="M 79.54389044137918 95.25157060432595 l -33.61187081082827 -7.802245825109675 a55.50554881927327,55.50554881927327 0 0,0 0.2240499973045921,-0.9288318847591885 l 33.47258801326287 8.37966294152826" fill="#5cff2a" stroke="none" /><path d="M 80.14247586403 93.16781622104843 l -3.7608827615393623 -1.2939700851922276 a24.977260077920015,24.977260077920015 0 0,0 0.14337770248597115,-0.4053480723769043 l 3.7380519782435817 1.358515783995743" fill="#ff3004" stroke="none" /><path d="M 80.2630227832202 92.82701384747504 l -12.312620642317242 -4.474761074028545 a34.1005386817206,34.1005386817206 0 0,0 0.20524531519010672,-0.5499554031587967 l 12.233770738625507 4.686039614216683" fill="#ffab0f" stroke="none" /><path d="M 80.38941819471856 92.48833698450439 l -30.99285069737246 -11.871542243868129 a54.188707561421644,54.188707561421644 0 0,0 0.34114746015212943,-0.8681830753548944 l 30.783909687338642 12.403274324118787" fill="#69ff28" stroke="none" /><line stroke="#e1ed5e" stroke-width="0.3" x1="26.266209847984243" x2="21.928928074336255" y1="57.711370442889674" y2="55.22380399835377" /><path d="M 25.398753493254645 57.213857153982495 a86.0,86.0 0 0,1 29.58750427330803,-30.492523968695096" fill="none" id="id23" stroke="none" /><text fill="#e1ed5e" style="font-size:6.75px; font-family:Arial;" text-anchor="middle"><textPath startOffset="21.46611528233685" xlink:href="#id23">November</textPath></text><path d="M 84.07557802195018 86.31012108654704 l -7.771987140179614 -6.681408154885034 a31.249146259044288,31.249146259044288 0 0,0 0.3541690983761206,-0.40487650376309264 l 7.65582617822565 6.814200214851069" fill="#ff860c" stroke="none" /><path d="M 87.80319425747018 82.90503203632743 l -18.479004400417384 -25.900058990377666 a52.81645265166574,52.81645265166574 0 0,0 0.7446336641815353,-0.5216634681617158 l 18.030439596652187 26.214307301303325" fill="#77ff26" stroke="none" /><path d="M 88.39885842347998 82.49532879139004 l -2.705899167447818 -4.082863305943184 a25.898128528265882,25.898128528265882 0 0,0 0.37371366259720057,-0.24307376167504016 l 2.63521847906633 4.12883599177776" fill="#ff3d05" stroke="none" /><line stroke="#e1ed5e" stroke-width="0.3" x1="56.762969772571076" x2="54.21961505331055" y1="26.818313649435495" y2="22.513508569990535" /><path d="M 56.25429882871897 25.957352633546506 a86.0,86.0 0 0,1 42.265352541879196,-11.944610805530505" fill="none" id="id24" stroke="none" /><text fill="#e1ed5e" style="font-size:6.75px; font-family:Arial;" text-anchor="middle"><textPath startOffset="22.20632615414155" xlink:href="#id24">December</textPath></text><path d="M 89.94658935756843 81.56283822128135 l -2.2882460290946733 -4.196462646205509 a25.7797875089449,25.7797875089449 0 0,0 0.3914291879368953,-0.20908791614465655 l 2.2156717946294724 4.235229288851915" fill="#ff3b05" stroke="none" /><path d="M 90.26544431104013 81.39251694778311 l -7.431586748765597 -14.205386347069208 a37.0318895603085,37.0318895603085 0 0,0 0.5673629567047813,-0.29062534292098313 l 7.185963304472052 14.331204215302696" fill="#ffd113" stroke="none" /><path d="M 92.23578459929587 80.48803036053334 l -23.29264620211241 -58.53590891839998 a84.0,84.0 0 0,0 1.3480673400012946,-0.5230291844377941 l 22.28159569711144 58.92818080672833" fill="#4dd2ff" stroke="none" /><path d="M 97.11714578562143 79.19881850522333 l -0.6925399972119748 -4.997009596443891 a26.0447712093504,26.0447712093504 0 0,0 0.4446031846635575,-0.05772225356617062 l 0.6064220840405595 5.0081901731741985" fill="#ff3f05" stroke="none" /></svg>