<?xml version="1.0" encoding="utf-8" ?>
<svg baseProfile="full" height="200mm" version="1.1" viewBox="0,0,200,200" width="200mm" xmlns="http://www.w3.org/2000/svg" xmlns:ev="http://www.w3.org/2001/xml-events" xmlns:xlink="http://www.w3.org/1999/xlink"><defs /><rect fill="#1a1a1a" height="200" width="200" x="0" y="0" /><text alignment-baseline="middle" fill="#e1ed5e" style="dominant-baseline: central; font-size:9.0px; font-family:Arial;" text-anchor="middle" x="100.0" y="100.0">2024</text><line stroke="#e1ed5e" stroke-width="0.3" x1="100.0" x2="100.0" y1="15.0" y2="10.0" /><path d="M 100.0 14.0 a86.0,86.0 0 0,1 42.35913384403234,11.155469271406648" fill="none" id="id37" stroke="none" /><text fill="#e1ed5e" style="font-size:6.75px; font-family:Arial;" text-anchor="middle"><textPath startOffset="22.145653131862478" xlink:href="#id37">January</textPath></text><path d="M 103.23170211078529 79.25015418208739 l 0.20593312778985368 -1.3222384068690072 a22.338178933372067,22.338178933372067 0 0,0 0.37839013273459093,0.062263952347144276 l -0.2286007635775151 1.3185084560261946" fill="#ff0200" stroke="none" /><path d="M 103.58742460773223 79.30868818359171 l 0.20156390314738493 -1.1625670298312691 a22.179911058471234,22.179911058471234 0 0,0 0.37459257454126815,0.0682632454166136 l -0.22149121123970675 1.1589356104832895" fill="#ff0000" stroke="none" /><path d="M 105.3480935250658 79.69241777938227 l 0.3008478144736 -1.1423681541247184 a22.181318926891404,22.181318926891404 0 0,0 0.36738453688438816,0.10013228921430925 l -0.32041375229268093 1.137035370766267" fill="#ff0000" stroke="none" /><path d="M 106.38641147887787 79.99465700312896 l 10.705768404992472 -33.535667047963294 a56.203045912153485,56.203045912153485 0 0,0 0.9165840618977413,0.30129938681857704 l -11.279875204537955 33.34694673974269" fill="#57ff2a" stroke="none" /><line stroke="#e1ed5e" stroke-width="0.3" x1="143.13028292997686" x2="145.6673583964461" y1="26.7553504044142" y2="22.446841604673864" /><path d="M 143.63769802327073 25.89364864446614 a86.0,86.0 0 0,1 29.32050498858742,28.57503671076993" fill="none" id="id38" stroke="none" /><text fill="#e1ed5e" style="font-size:6.75px; font-family:Arial;" text-anchor="middle"><textPath startOffset="20.669276256404974" xlink:href="#id38">February</textPath></text><path d="M 110.65571695917076 81.90426304109057 l 0.5987046798126211 -1.0167314356668502 a22.179911058471234,22.179911058471234 0 0,0 0.3264325700306183,0.19601337913384576 l -0.6160700064006737 1.0063040559970833" fill="#ff0000" stroke="none" /><path d="M 111.27062007382361 82.28071324371311 l 2.1334928542932463 -3.3542051306930345 a24.97523380671978,24.97523380671978 0 0,0 0.3597793840130119,0.23320464998603313 l -2.1907578705632655 3.3170866390031066" fill="#ff2803" stroke="none" /><path d="M 112.7482090630111 83.31218511350987 l 3.8677511054889067 -5.063010353563434 a27.37130853548164,27.37130853548164 0 0,0 0.3709334386437634,0.2884400854602361 l -3.954094488767896 4.995869216482407" fill="#ff4a06" stroke="none" /><path d="M 113.31354834802062 83.75963576809568 l 9.837256912880674 -11.999853918114413 a36.516704470540915,36.516704470540915 0 0,0 0.48136957282242276,0.40157561815058884 l -10.04180081986499 11.829216116051953" fill="#ffc512" stroke="none" /><path d="M 113.59037401385872 83.9905735841838 l 4.173219869368419 -4.916042512703895 a27.448506653854317,27.448506653854317 0 0,0 0.35659599357319655,0.3080191260981878 l -4.256995342704475 4.843679254140988" fill="#ff4b07" stroke="none" /><path d="M 114.65682725009322 84.96080404539774 l 8.823951424613645 -9.05415150934609 a33.64277573549951,33.64277573549951 0 0,0 0.41013440083540564,0.40662899966971383 l -8.978077745579013 8.901342499447717" fill="#ff9f0e" stroke="none" /><path d="M 115.6541949942343 86.00192230759917 l 1.0413449601458602 -0.9311770846141038 a22.39695743991419,22.39695743991419 0 0,0 0.2538203843661864,0.2888010042434128 l -1.0571764084706368 0.9131638025593931" fill="#ff0300" stroke="none" /><path d="M 116.1254893667686 86.54754324733833 l 1.077020600577218 -0.8984888905665571 a22.40258891359487,22.40258891359487 0 0,0 0.24381823588055077,0.2974186034836589 l -1.0922856556963965 0.879868005384403" fill="#ff0300" stroke="none" /><path d="M 116.7966241395341 87.39550010848427 l 50.389872418602316 -37.813499674547195 a84.0,84.0 0 0,0 0.855591921664697,1.1607747629245 l -51.03156635985084 36.94291860235382" fill="#4dd2ff" stroke="none" /><path d="M 117.01052211995028 87.68569379921539 l 3.9245255230089677 -2.841053827880272 a25.844944523280112,25.844944523280112 0 0,0 0.2570770804878095,0.36161110835091326 l -3.972717702026738 2.773265492819855" fill="#ff3505" stroke="none" /><line stroke="#e1ed5e" stroke-width="0.3" x1="172.87174338648825" x2="177.1583165268699" y1="56.24261187166439" y2="53.66864786411523" /><path d="M 173.72905801456457 55.72781907015455 a86.0,86.0 0 0,1 12.242430191666344,42.057860355516425" fill="none" id="id39" stroke="none" /><text fill="#e1ed5e" style="font-size:6.75px; font-family:Arial;" text-anchor="middle"><textPath startOffset="22.145653131862474" xlink:href="#id39">March</textPath></text><path d="M 118.36410011445183 89.81374322990088 l 23.179554280356342 -12.857308021880591 a47.50664268076025,47.50664268076025 0 0,0 0.3894518791264375,0.7165475927133297 l -23.396851509098124 12.457505595692657" fill="#b5ff20" stroke="none" /><line stroke="#e1ed5e" stroke-width="0.3" x1="184.99686870605535" x2="189.99668451229388" y1="99.2704041080226" y2="99.22748670261217" /><path d="M 185.99683186730306 99.26182062694052 a86.0,86.0 0 0,1 -10.086455211305974,41.156179273409016" fill="none" id="id40" stroke="none" /><text fill="#e1ed5e" style="font-size:6.75px; font-family:Arial;" text-anchor="middle"><textPath startOffset="21.40746469413373" xlink:href="#id40">April</textPath></text><line stroke="#e1ed5e" stroke-width="0.3" x1="174.33088141563837" x2="178.70328620479359" y1="141.23008692659167" y2="143.65538615756765" /><path d="M 175.20536237346943 141.71514677278685 a86.0,86.0 0 0,1 -30.301960400862466,31.631185727798858" fill="none" id="id41" stroke="none" /><text fill="#e1ed5e" style="font-size:6.75px; font-family:Arial;" text-anchor="middle"><textPath startOffset="22.145653131862474" xlink:href="#id41">May</textPath></text><line stroke="#e1ed5e" stroke-width="0.3" x1="143.1302829299769" x2="145.66735839644613" y1="173.24464959558577" y2="177.55315839532614" /><path d="M 143.63769802327073 174.10635135553383 a86.0,86.0 0 0,1 -40.68552437913181,11.842963189579606" fill="none" id="id42" stroke="none" /><text fill="#e1ed5e" style="font-size:6.75px; font-family:Arial;" text-anchor="middle"><textPath startOffset="21.407464694133747" xlink:href="#id42">June</textPath></text><line stroke="#e1ed5e" stroke-width="0.3" x1="101.45913802915013" x2="101.54496967792366" y1="184.9874750549273" y2="189.98673829345242" /><path d="M 101.47630435890484 185.9873277026323 a86.0,86.0 0 0,1 -42.54439059252881,-10.42667462771756" fill="none" id="id43" stroke="none" /><text fill="#e1ed5e" style="font-size:6.75px; font-family:Arial;" text-anchor="middle"><textPath startOffset="22.145653131862474" xlink:href="#id43">July</textPath></text><line stroke="#e1ed5e" stroke-width="0.3" x1="58.13341422392154" x2="55.67067388415222" y1="173.97424548756322" y2="178.32567169271397" /><path d="M 57.64086615596768 174.84453072859336 a86.0,86.0 0 0,1 -31.369924170532247,-30.572349798747897" fill="none" id="id44" stroke="none" /><text fill="#e1ed5e" style="font-size:6.75px; font-family:Arial;" text-anchor="middle"><textPath startOffset="22.145653131862474" xlink:href="#id44">August</textPath></text><line stroke="#e1ed5e" stroke-width="0.3" x1="26.387840678322732" x2="22.057713659400548" y1="142.50000000000003" y2="145.00000000000006" /><path d="M 25.521815274538298 143.00000000000003 a86.0,86.0 0 0,1 -11.493303480769221,-40.785679425670985" fill="none" id="id45" stroke="none" /><text fill="#e1ed5e" style="font-size:6.75px; font-family:Arial;" text-anchor="middle"><textPath startOffset="21.40746469413373" xlink:href="#id45">September</textPath></text><line stroke="#e1ed5e" stroke-width="0.3" x1="15.003131293944662" x2="10.003315487706104" y1="100.72959589197737" y2="100.7725132973878" /><path d="M 14.003168132696942 100.73817937305945 a86.0,86.0 0 0,1 10.791469493833604,-42.45332614584628" fill="none" id="id46" stroke="none" /><text fill="#e1ed5e" style="font-size:6.75px; font-family:Arial;" text-anchor="middle"><textPath startOffset="22.145653131862435" xlink:href="#id46">October</textPath></text><line stroke="#e1ed5e" stroke-width="0.3" x1="26.387840678322718" x2="22.05771365940052" y1="57.49999999999999" y2="54.99999999999999" /><path d="M 25.521815274538284 56.99999999999999 a86.0,86.0 0 0,1 29.574782752854787,-30.34633250058573" fill="none" id="id47" stroke="none" /><text fill="#e1ed5e" style="font-size:6.75px; font-family:Arial;" text-anchor="middle"><textPath startOffset="21.40746469413373" xlink:href="#id47">November</textPath></text><line stroke="#e1ed5e" stroke-width="0.3" x1="56.869717070023135" x2="54.33264160355391" y1="26.7553504044142" y2="22.446841604673864" /><path d="M 56.362301976729285 25.89364864446614 a86.0,86.0 0 0,1 42.16139366436587,-11.88097634709845" fill="none" id="id48" stroke="none" /><text fill="#e1ed5e" style="font-size:6.75px; font-family:Arial;" text-anchor="middle"><textPath startOffset="22.145653131862474" xlink:href="#id48">December</textPath></text></svg>