<?xml version="1.0" encoding="utf-8" ?>
<svg baseProfile="full" height="200mm" version="1.1" viewBox="0,0,200,200" width="200mm" xmlns="http://www.w3.org/2000/svg" xmlns:ev="http://www.w3.org/2001/xml-events" xmlns:xlink="http://www.w3.org/1999/xlink"><defs /><rect fill="#1a1a1a" height="200" width="200" x="0" y="0" /><text alignment-baseline="middle" fill="#e1ed5e" style="dominant-baseline: central; font-size:9.0px; font-family:Arial;" text-anchor="middle" x="100.0" y="100.0">2024</text><line stroke="#e1ed5e" stroke-width="0.3" x1="100.0" x2="100.0" y1="15.0" y2="10.0" /><path d="M 100.0 14.0 a86.0,86.0 0 0,1 42.35913384403234,11.155469271406648" fill="none" id="id37" stroke="none" /><text fill="#e1ed5e" style="font-size:6.75px; font-family:Arial;" text-anchor="middle"><textPath startOffset="22.145653131862478" xlink:href="#id37">January</textPath></text><path d="M 103.23170211078529 79.25015418208739 l 0.3685416052672229 -2.3663014797247626 a23.394828930792457,23.394828930792457 0 0,0 0.3962889029956075,0.06520918818231367 l -0.4091080113159009 2.3596262930467806" fill="#ff0400" stroke="none" /><path d="M 103.58742460773223 79.30868818359171 l 0.36072236277433095 -2.0805507302447386 a23.111589913815514,23.111589913815514 0 0,0 0.3903275330877219,0.07113067902282483 l -0.3963846294131065 2.074051877290548" fill="#ff0000" stroke="none" /><path d="M 105.3480935250658 79.69241777938227 l 0.5384026245664539 -2.0444024613509564 a23.114109460297147,23.114109460297147 0 0,0 0.3828341510058437,0.10434315024449434 l -0.5734181765069905 2.03485881696232" fill="#ff0000" stroke="none" /><path d="M 106.38641147887787 79.99465700312896 l 19.15923443663363 -60.016028990613094 a84.0,84.0 0 0,0 1.3699090494090305,0.4503163143919138 l -20.186666223690402 59.67829175481916" fill="#4dd2ff" stroke="none" /><line stroke="#e1ed5e" stroke-width="0.3" x1="143.13028292997686" x2="145.6673583964461" y1="26.7553504044142" y2="22.446841604673864" /><path d="M 143.63769802327073 25.89364864446614 a86.0,86.0 0 0,1 29.32050498858742,28.57503671076993" fill="none" id="id38" stroke="none" /><text fill="#e1ed5e" style="font-size:6.75px; font-family:Arial;" text-anchor="middle"><textPath startOffset="20.669276256404974" xlink:href="#id38">February</textPath></text><path d="M 110.65571695917076 81.90426304109057 l 1.0714525931170424 -1.8195607450234184 a23.111589913815514,23.111589913815514 0 0,0 0.34014454220180795,0.20424702444568468 l -1.1025298918762845 1.8008997200418126" fill="#ff0000" stroke="none" /><path d="M 111.27062007382361 82.28071324371311 l 3.8181369349653593 -6.002745437453948 a28.11414945309844,28.11414945309844 0 0,0 0.4049968641160037,0.2625140742866964 l -3.92061943133837 5.936317521463357" fill="#ff4906" stroke="none" /><path d="M 112.7482090630111 83.31218511350987 l 6.921796490390541 -9.060853798573588 a32.40220760263153,32.40220760263153 0 0,0 0.43911171693208606,0.3414559270298654 l -7.076318151957853 8.94069681992293" fill="#ff840c" stroke="none" /><path d="M 113.31354834802062 83.75963576809568 l 17.604930751106433 -21.475152994650674 a48.768971585114684,48.768971585114684 0 0,0 0.6428810967280527,0.5363142757490688 l -17.97098618199638 21.169776534989733" fill="#adff20" stroke="none" /><path d="M 113.59037401385872 83.9905735841838 l 7.468468848584563 -8.797837524434813 a32.54036273470775,32.54036273470775 0 0,0 0.4227466042851526,0.3651584481028691 l -7.618394932632576 8.668334943867224" fill="#ff860c" stroke="none" /><path d="M 114.65682725009322 84.96080404539774 l 15.79150114276725 -16.20347132779994 a43.62573736727389,43.62573736727389 0 0,0 0.5318352979195397,0.5272897243966024 l -16.067328360816752 15.930001593174676" fill="#e9ff1a" stroke="none" /><path d="M 115.6541949942343 86.00192230759917 l 1.8636095482447952 -1.6664511496272345 a23.50001999640065,23.50001999640065 0 0,0 0.26632117885215456,0.30302461362925165 l -1.89194179105554 1.634214258186685" fill="#ff0600" stroke="none" /><path d="M 116.1254893667686 86.54754324733833 l 1.927455311841054 -1.6079517734614799 a23.51009818232718,23.51009818232718 0 0,0 0.25587179617062084,0.3121219871560559 l -1.9547739272503024 1.574627504606929" fill="#ff0601" stroke="none" /><line stroke="#e1ed5e" stroke-width="0.3" x1="172.87174338648825" x2="177.1583165268699" y1="56.24261187166439" y2="53.66864786411523" /><path d="M 173.72905801456457 55.72781907015455 a86.0,86.0 0 0,1 12.242430191666344,42.057860355516425" fill="none" id="id39" stroke="none" /><text fill="#e1ed5e" style="font-size:6.75px; font-family:Arial;" text-anchor="middle"><textPath startOffset="22.145653131862474" xlink:href="#id39">March</textPath></text><line stroke="#e1ed5e" stroke-width="0.3" x1="184.99686870605535" x2="189.99668451229388" y1="99.2704041080226" y2="99.22748670261217" /><path d="M 185.99683186730306 99.26182062694052 a86.0,86.0 0 0,1 -10.086455211305974,41.156179273409016" fill="none" id="id40" stroke="none" /><text fill="#e1ed5e" style="font-size:6.75px; font-family:Arial;" text-anchor="middle"><textPath startOffset="21.40746469413373" xlink:href="#id40">April</textPath></text><line stroke="#e1ed5e" stroke-width="0.3" x1="174.33088141563837" x2="178.70328620479359" y1="141.23008692659167" y2="143.65538615756765" /><path d="M 175.20536237346943 141.71514677278685 a86.0,86.0 0 0,1 -30.301960400862466,31.631185727798858" fill="none" id="id41" stroke="none" /><text fill="#e1ed5e" style="font-size:6.75px; font-family:Arial;" text-anchor="middle"><textPath startOffset="22.145653131862474" xlink:href="#id41">May</textPath></text><line stroke="#e1ed5e" stroke-width="0.3" x1="143.1302829299769" x2="145.66735839644613" y1="173.24464959558577" y2="177.55315839532614" /><path d="M 143.63769802327073 174.10635135553383 a86.0,86.0 0 0,1 -40.68552437913181,11.842963189579606" fill="none" id="id42" stroke="none" /><text fill="#e1ed5e" style="font-size:6.75px; font-family:Arial;" text-anchor="middle"><textPath startOffset="21.407464694133747" xlink:href="#id42">June</textPath></text><line stroke="#e1ed5e" stroke-width="0.3" x1="101.45913802915013" x2="101.54496967792366" y1="184.9874750549273" y2="189.98673829345242" /><path d="M 101.47630435890484 185.9873277026323 a86.0,86.0 0 0,1 -42.54439059252881,-10.42667462771756" fill="none" id="id43" stroke="none" /><text fill="#e1ed5e" style="font-size:6.75px; font-family:Arial;" text-anchor="middle"><textPath startOffset="22.145653131862474" xlink:href="#id43">July</textPath></text><line stroke="#e1ed5e" stroke-width="0.3" x1="58.13341422392154" x2="55.67067388415222" y1="173.97424548756322" y2="178.32567169271397" /><path d="M 57.64086615596768 174.84453072859336 a86.0,86.0 0 0,1 -31.369924170532247,-30.572349798747897" fill="none" id="id44" stroke="none" /><text fill="#e1ed5e" style="font-size:6.75px; font-family:Arial;" text-anchor="middle"><textPath startOffset="22.145653131862474" xlink:href="#id44">August</textPath></text><line stroke="#e1ed5e" stroke-width="0.3" x1="26.387840678322732" x2="22.057713659400548" y1="142.50000000000003" y2="145.00000000000006" /><path d="M 25.521815274538298 143.00000000000003 a86.0,86.0 0 0,1 -11.493303480769221,-40.785679425670985" fill="none" id="id45" stroke="none" /><text fill="#e1ed5e" style="font-size:6.75px; font-family:Arial;" text-anchor="middle"><textPath startOffset="21.40746469413373" xlink:href="#id45">September</textPath></text><line stroke="#e1ed5e" stroke-width="0.3" x1="15.003131293944662" x2="10.003315487706104" y1="100.72959589197737" y2="100.7725132973878" /><path d="M 14.003168132696942 100.73817937305945 a86.0,86.0 0 0,1 10.791469493833604,-42.45332614584628" fill="none" id="id46" stroke="none" /><text fill="#e1ed5e" style="font-size:6.75px; font-family:Arial;" text-anchor="middle"><textPath startOffset="22.145653131862435" xlink:href="#id46">October</textPath></text><line stroke="#e1ed5e" stroke-width="0.3" x1="26.387840678322718" x2="22.05771365940052" y1="57.49999999999999" y2="54.99999999999999" /><path d="M 25.521815274538284 56.99999999999999 a86.0,86.0 0 0,1 29.574782752854787,-30.34633250058573" fill="none" id="id47" stroke="none" /><text fill="#e1ed5e" style="font-size:6.75px; font-family:Arial;" text-anchor="middle"><textPath startOffset="21.40746469413373" xlink:href="#id47">November</textPath></text><line stroke="#e1ed5e" stroke-width="0.3" x1="56.869717070023135" x2="54.33264160355391" y1="26.7553504044142" y2="22.446841604673864" /><path d="M 56.362301976729285 25.89364864446614 a86.0,86.0 0 0,1 42.16139366436587,-11.88097634709845" fill="none" id="id48" stroke="none" /><text fill="#e1ed5e" style="font-size:6.75px; font-family:Arial;" text-anchor="middle"><textPath startOffset="22.145653131862474" xlink:href="#id48">December</textPath></text></svg>