<?xml version="1.0" encoding="utf-8" ?>
<svg baseProfile="full" height="200mm" version="1.1" viewBox="0,0,200,200" width="200mm" xmlns="http://www.w3.org/2000/svg" xmlns:ev="http://www.w3.org/2001/xml-events" xmlns:xlink="http://www.w3.org/1999/xlink"><defs /><rect fill="#1a1a1a" height="200" width="200" x="0" y="0" /><text alignment-baseline="middle" fill="#e1ed5e" style="dominant-baseline: central; font-size:9.0px; font-family:Arial;" text-anchor="middle" x="100.0" y="100.0">2023</text><line stroke="#e1ed5e" stroke-width="0.3" x1="100.0" x2="100.0" y1="15.0" y2="10.0" /><path d="M 100.0 14.0 a86.0,86.0 0 0,1 42.46469731375804,11.215312516191453" fill="none" id="id25" stroke="none" /><text fill="#e1ed5e" style="font-size:6.75px; font-family:Arial;" text-anchor="middle"><textPath startOffset="22.20632615414155" xlink:href="#id25">January</textPath></text><path d="M 100.0 79.0 l 0.0 -19.983223205799163 a40.98322320579916,40.98322320579916 0 0,0 0.7054588174554899,0.006072106763136693 l -0.34397833818296153 19.980262475644587" fill="#fff917" stroke="none" /><path d="M 104.66035177308747 79.52364482259891 l 0.9681158590956197 -4.253645464746468 a25.36242456168478,25.36242456168478 0 0,0 0.42485239057145746,0.10054883441805218 l -1.0411919366296007 4.236350718187547" fill="#ff2803" stroke="none" /><path d="M 105.01212808612495 79.60689891045804 l 3.8361857854806085 -15.608484694981849 a37.072993369444475,37.072993369444475 0 0,0 0.6183971451026382,0.1576432014734676 l -4.104291819268272 15.540138497339512" fill="#ffc812" stroke="none" /><path d="M 106.74666289553966 80.11325718540242 l 5.307599383150917 -15.644899638519176 a37.52069901400547,37.52069901400547 0 0,0 0.6098328473145453,0.21275870604619848 l -5.576114234528736 15.55122007930077" fill="#ffcd13" stroke="none" /><path d="M 107.4271985657038 80.35727306442388 l 7.265311839372945 -19.214584785924288 a41.542274085865124,41.542274085865124 0 0,0 0.6666878919587912,0.2586645444621681 l -7.594982896331404 19.086677537571575" fill="#feff18" stroke="none" /><path d="M 109.41281617654863 81.2277094730956 l 5.903719858151824 -11.77398371411916 a34.17120346300517,34.17120346300517 0 0,0 0.5235345876520339,0.2681747499890771 l -6.105514933392614 11.670616438817582" fill="#ffa20f" stroke="none" /><path d="M 109.73455568895987 81.39251694778311 l 7.72974310223868 -14.775308536784895 a37.67509132759983,37.67509132759983 0 0,0 0.5720423567763558,0.3055652159085487 l -7.982930505543346 14.640064594374593" fill="#ffcf13" stroke="none" /><line stroke="#e1ed5e" stroke-width="0.3" x1="143.23703022742887" x2="145.7803849466894" y1="26.81831364943548" y2="22.513508569990506" /><path d="M 143.74570117128098 25.957352633546492 a86.0,86.0 0 0,1 28.547481713284135,27.462654790039103" fill="none" id="id26" stroke="none" /><text fill="#e1ed5e" style="font-size:6.75px; font-family:Arial;" text-anchor="middle"><textPath startOffset="19.985693538727396" xlink:href="#id26">February</textPath></text><path d="M 111.60114157652 82.49532879139004 l 29.484247577598836 -44.488040791063284 a74.37140272322299,74.37140272322299 0 0,0 1.0610153869656256,0.7164023255498218 l -30.245667658971005 43.973926553214795" fill="#41ffce" stroke="none" /><path d="M 113.34407831869373 83.78471172551755 l 13.031117559252515 -15.83498857811219 a41.507483709904605,41.507483709904605 0 0,0 0.5477850604758226,0.4587542346935122 l -13.301760156687456 15.608333186024858" fill="#ffff18" stroke="none" /><path d="M 113.89432698308785 84.25364557470407 l 30.590813677811337 -34.668379038101314 a67.23520721917478,67.23520721917478 0 0,0 0.8612158089840374,0.7732080566205904 l -31.183040474391365 34.136671972711426" fill="#38ff81" stroke="none" /><path d="M 116.82858285166822 87.43820079747576 l 14.913751716524255 -11.132461721261794 a39.61052643633407,39.61052643633407 0 0,0 0.4031547827362848,0.5499026705778348 l -15.103169111774166 10.874096607012465" fill="#ffe815" stroke="none" /><path d="M 117.04232023915458 87.72973835380427 l 46.70376011853564 -33.62613473246306 a78.54961464906154,78.54961464906154 0 0,0 0.7805863474536759,1.1040840311215496 l -47.2756590857932 32.817224201009715" fill="#46fff8" stroke="none" /><line stroke="#e1ed5e" stroke-width="0.3" x1="172.23445277983987" x2="176.4835382374775" y1="55.19839476539836" y2="52.563006222186495" /><path d="M 173.08426987136738 54.67131705675599 a86.0,86.0 0 0,1 12.851231095245387,41.99856678651699" fill="none" id="id27" stroke="none" /><text fill="#e1ed5e" style="font-size:6.75px; font-family:Arial;" text-anchor="middle"><textPath startOffset="22.20632615414155" xlink:href="#id27">March</textPath></text><path d="M 118.21658344932153 89.55222093294921 l 19.302615003862357 -11.070652053813351 a43.25197256163898,43.25197256163898 0 0,0 0.36484554468208086,0.6490195134295369 l -19.49031818983687 10.736749030449019" fill="#eaff1a" stroke="none" /><path d="M 119.34039704204932 91.81776055985345 l 18.06193411102631 -7.641366892688574 a40.61183193431284,40.61183193431284 0 0,0 0.26683581251227356,0.6461640852252638 l -18.19079161042478 7.3293282370100075" fill="#fff417" stroke="none" /><path d="M 120.28053869075195 94.5502522615342 l 3.540301771838567 -0.9513431506314847 a24.665895583065172,24.665895583065172 0 0,0 0.10665494269744841,0.41098500150253936 l -3.5561530464063185 0.8902617235800949" fill="#ff1e03" stroke="none" /><path d="M 120.37134235888165 94.90015583598534 l 30.83054283662634 -7.718242675854972 a52.781970385809004,52.781970385809004 0 0,0 0.21305618220578026,0.8832554236042456 l -30.95883181909294 7.18640202059132" fill="#7dff26" stroke="none" /><line stroke="#e1ed5e" stroke-width="0.3" x1="184.98032266829074" x2="189.97916517819016" y1="98.17113171792111" y2="98.06355123074" /><path d="M 185.9800911702706 98.14961562048488 a86.0,86.0 0 0,1 -9.607161424134198,41.387399972396054" fill="none" id="id28" stroke="none" /><text fill="#e1ed5e" style="font-size:6.75px; font-family:Arial;" text-anchor="middle"><textPath startOffset="21.466115282336823" xlink:href="#id28">April</textPath></text><path d="M 120.99513854157772 99.54816195383933 l 2.7831467697833308 -0.059896322958142005 a23.78379121193729,23.78379121193729 0 0,0 0.005285656395230988,0.40937991280835884 l -2.7837654332962773 0.011980152089320436" fill="#ff1101" stroke="none" /><path d="M 120.99980553446 99.90962569577887 l 6.2222091369219985 -0.02677776327713713 a27.222266756753662,27.222266756753662 0 0,0 -0.002016654960921604,0.46859959116082706 l -6.221748184671574 -0.08033130608737467" fill="#ff4306" stroke="none" /><path d="M 120.92983693683757 101.71520430193887 l 21.14419341604517 1.7327708580661298 a42.21507506613378,42.21507506613378 0 0,0 -0.06558494605838976,0.7237244146489211 l -21.111233873709704 -2.0964766612636216" fill="#f6ff19" stroke="none" /><path d="M 120.8583938346157 102.4346265915055 l 62.575181503847105 7.303879774516526 a84.0,84.0 0 0,0 -0.1799939630126075,1.4347289828504204 l -62.44018603158764 -8.379926511654341" fill="#4dd2ff" stroke="none" /><path d="M 120.41448212921028 104.9243191809786 l 13.980353925184708 3.3722983789116427 a35.38133137890361,35.38133137890361 0 0,0 -0.14790859905927953,0.5908213295065162 l -13.920234011830368 -3.612447547815555" fill="#ffb210" stroke="none" /><path d="M 118.81262510543309 109.33194174019688 l 12.458591300082743 6.180043854896098 a34.90717222266757,34.90717222266757 0 0,0 -0.271646500887054,0.5359843173603741 l -12.35036612940942 -6.393582383959167" fill="#ffac0f" stroke="none" /><line stroke="#e1ed5e" stroke-width="0.3" x1="174.80103733775053" x2="179.2010983576182" y1="140.37084112569926" y2="142.7455964860345" /><path d="M 175.68104954172406 140.8457921977663 a86.0,86.0 0 0,1 -30.038265399797805,32.042727171017184" fill="none" id="id29" stroke="none" /><text fill="#e1ed5e" style="font-size:6.75px; font-family:Arial;" text-anchor="middle"><textPath startOffset="22.206326154141568" xlink:href="#id29">May</textPath></text><path d="M 118.48025628344425 109.97397251340804 l 2.457953306246341 1.326581100377054 a23.79309002210185,23.79309002210185 0 0,0 -0.19762267580468887,0.3587425599720222 l -2.4347542209901425 -1.3686941787468814" fill="#ff1101" stroke="none" /><path d="M 118.12598468904814 110.60418214915192 l 1.387563020640502 0.8117611962449486 a22.60757188827686,22.60757188827686 0 0,0 -0.19939784132076263,0.33420225139600207 l -1.373384303621512 -0.8355255415270547" fill="#ff0000" stroke="none" /><line stroke="#e1ed5e" stroke-width="0.3" x1="143.8653032363475" x2="146.44561519142675" y1="172.8068346515853" y2="177.08958963109032" /><path d="M 144.38136562736335 173.6633856474863 a86.0,86.0 0 0,1 -40.68145358897372,12.25698825130547" fill="none" id="id30" stroke="none" /><text fill="#e1ed5e" style="font-size:6.75px; font-family:Arial;" text-anchor="middle"><textPath startOffset="21.466115282336833" xlink:href="#id30">June</textPath></text><line stroke="#e1ed5e" stroke-width="0.3" x1="102.19456741930631" x2="102.32365962044197" y1="184.97166512339345" y2="189.96999836594603" /><path d="M 102.22038585953345 185.97133177190398 a86.0,86.0 0 0,1 -42.740103519485714,-10.115201625700543" fill="none" id="id31" stroke="none" /><text fill="#e1ed5e" style="font-size:6.75px; font-family:Arial;" text-anchor="middle"><textPath startOffset="22.20632615414155" xlink:href="#id31">July</textPath></text><line stroke="#e1ed5e" stroke-width="0.3" x1="58.666819895761336" x2="56.23545636021788" y1="174.27360380694188" y2="178.64263932499728" /><path d="M 58.180547188652646 175.14741091055294 a86.0,86.0 0 0,1 -31.652253787137756,-30.449443065178592" fill="none" id="id32" stroke="none" /><text fill="#e1ed5e" style="font-size:6.75px; font-family:Arial;" text-anchor="middle"><textPath startOffset="22.20632615414155" xlink:href="#id32">August</textPath></text><line stroke="#e1ed5e" stroke-width="0.3" x1="26.63291911575756" x2="22.317208475507996" y1="142.92168965132927" y2="145.44649492493687" /><path d="M 25.769776987707644 143.4266507060508 a86.0,86.0 0 0,1 -11.730757126820373,-40.83630448921669" fill="none" id="id33" stroke="none" /><text fill="#e1ed5e" style="font-size:6.75px; font-family:Arial;" text-anchor="middle"><textPath startOffset="21.46611528233685" xlink:href="#id33">September</textPath></text><line stroke="#e1ed5e" stroke-width="0.3" x1="15.007084014347285" x2="10.007500721073583" y1="101.09737516637583" y2="101.16192664675087" /><path d="M 14.007167355692545 101.11028546245083 a86.0,86.0 0 0,1 10.666146001902534,-42.60595125391555" fill="none" id="id34" stroke="none" /><text fill="#e1ed5e" style="font-size:6.75px; font-family:Arial;" text-anchor="middle"><textPath startOffset="22.20632615414155" xlink:href="#id34">October</textPath></text><line stroke="#e1ed5e" stroke-width="0.3" x1="26.266209847984243" x2="21.928928074336255" y1="57.711370442889674" y2="55.22380399835377" /><path d="M 25.398753493254645 57.213857153982495 a86.0,86.0 0 0,1 29.58750427330803,-30.492523968695096" fill="none" id="id35" stroke="none" /><text fill="#e1ed5e" style="font-size:6.75px; font-family:Arial;" text-anchor="middle"><textPath startOffset="21.46611528233685" xlink:href="#id35">November</textPath></text><line stroke="#e1ed5e" stroke-width="0.3" x1="56.762969772571076" x2="54.21961505331055" y1="26.818313649435495" y2="22.513508569990535" /><path d="M 56.25429882871897 25.957352633546506 a86.0,86.0 0 0,1 42.265352541879196,-11.944610805530505" fill="none" id="id36" stroke="none" /><text fill="#e1ed5e" style="font-size:6.75px; font-family:Arial;" text-anchor="middle"><textPath startOffset="22.20632615414155" xlink:href="#id36">December</textPath></text></svg>